<?xml version="1.0" encoding="utf-8"?>
<!-- Generator: Adobe Illustrator 16.0.0, SVG Export Plug-In . SVG Version: 6.00 Build 0)  -->
<!DOCTYPE svg PUBLIC "-//W3C//DTD SVG 1.1//EN" "http://www.w3.org/Graphics/SVG/1.1/DTD/svg11.dtd">
<svg version="1.1" id="Layer_1" xmlns="http://www.w3.org/2000/svg" xmlns:xlink="http://www.w3.org/1999/xlink" x="0px" y="0px"
	 width="150px" height="70px" viewBox="0 0 150 70" enable-background="new 0 0 150 70" xml:space="preserve">
<g>
	<g>
		<linearGradient id="SVGID_1_" gradientUnits="userSpaceOnUse" x1="76.8262" y1="2.5303" x2="67.7433" y2="54.0418">
			<stop  offset="0.1372" style="stop-color:#BF8B2C"/>
			<stop  offset="0.3775" style="stop-color:#FBCF09"/>
			<stop  offset="0.5046" style="stop-color:#AC8347"/>
			<stop  offset="0.7933" style="stop-color:#F3C716"/>
			<stop  offset="0.9892" style="stop-color:#AC8753"/>
		</linearGradient>
		<path fill-rule="evenodd" clip-rule="evenodd" fill="url(#SVGID_1_)" d="M0.486,0.657c0,0,0.166-0.009,1.249-0.236
			C3.348,0.844,12.36,0.657,12.36,0.657l27.07,31.492V7.931c0-2.583-0.15-3.808-0.98-4.785c-0.831-0.978-3.553-1.002-3.517-0.97
			c-0.317,0-1.027-0.046-1.828-0.05c-0.007-0.493-0.007-1.468-0.007-1.468s0.368-0.056,1.187-0.209
			c3.003,0.677,14.849,0.507,15.48,1.084c-0.738,0.171-1.139,0.262-1.139,0.262H47.05c-1.9,0-3.233,0.539-4.032,1.613
			c-0.478,0.665-0.722,2.172-0.722,4.523c0,0,0.262,32.766,1.165,34.77c-0.569,0.31-1.165,0.57-1.165,0.57h-1.177L12.038,9.491
			v25.83c0,2.583,0.3,4.197,0.889,4.839c0.833,0.864,2.122,1.297,3.866,1.297l2.78,0.561c-0.421,0.221-0.527,0.271-1.203,0.58H2.841
			v-1.141c0,0,0.548-0.245,1.267-0.552c1.215,0.749,3.543,0.015,4.343-1.063c0.478-0.662,0.722-2.17,0.722-4.522L9.091,6.281
			C7.942,4.85,7.06,3.948,6.173,3.393C5.287,2.84,3.307,2.244,3.307,2.244S1.483,2.171,0.486,2.15
			C0.486,1.794,0.486,0.657,0.486,0.657L0.486,0.657z M63.34,20.732c4.026,0,7.25,1.218,9.685,3.662
			c2.067,2.08,3.106,4.476,3.106,7.181c0,1.897-0.573,3.82-1.712,5.766c-1.138,1.945-2.709,3.417-4.709,4.404
			c-2.007,0.989-4.233,1.479-6.687,1.479c-4.006,0-7.191-1.272-9.546-3.819c-1.988-2.151-2.987-4.556-2.987-7.229
			c0-1.945,0.604-3.883,1.81-5.805c1.207-1.921,2.8-3.345,4.778-4.263C59.047,21.19,61.134,20.732,63.34,20.732L63.34,20.732z
			 M62.44,22.25c-1.019,0-2.048,0.245-3.087,0.727c-1.029,0.49-1.87,1.337-2.502,2.555c-0.643,1.218-0.96,2.784-0.96,4.698
			c0,3.085,0.771,5.741,2.305,7.982c1.534,2.236,3.561,3.353,6.073,3.353c1.87,0,3.413-0.617,4.63-1.851
			c1.216-1.235,1.829-3.354,1.829-6.359c0-3.765-1.019-6.723-3.046-8.882C66.318,22.994,64.567,22.25,62.44,22.25L62.44,22.25z
			 M86.7,25.232c2.591-2.874,5.393-4.311,8.395-4.311c2.75,0,5.151,0.932,7.203,2.788c2.053,1.855,3.073,4.398,3.073,7.621
			c0,3.759-1.584,6.79-4.742,9.09c-2.724,1.974-5.755,2.96-9.096,2.96c-1.562,0-3.144-0.222-4.753-0.67
			c-1.621-0.45-3.262-1.13-4.943-2.031v-21.89c0-2.4-0.069-3.876-0.219-4.43c-0.15-0.561-0.38-0.932-0.691-1.137
			c-0.319-0.198-0.709-0.301-1.179-0.301c-0.552,0-1.232,0.127-2.062,0.372l-0.411-0.854l8.104-2.606H86.7V25.232L86.7,25.232z
			 M86.7,26.701v12.644c1,0.765,2.031,1.351,3.091,1.744c1.063,0.387,2.151,0.584,3.272,0.584c1.771,0,3.433-0.765,4.963-2.305
			c1.529-1.54,2.301-3.775,2.301-6.713c0-2.708-0.771-4.786-2.301-6.239c-1.53-1.453-3.272-2.179-5.232-2.179
			c-1.03,0-2.071,0.206-3.102,0.623C88.91,25.169,87.911,25.785,86.7,26.701L86.7,26.701z M118.241,9.833v28.153
			c0,1.32,0.122,2.197,0.367,2.623c0.253,0.428,0.629,0.758,1.146,0.98c0.509,0.222,1.474,0.333,2.874,0.333v0.851h-13.345v-0.851
			c1.249,0,2.103-0.104,2.561-0.302c0.457-0.196,0.813-0.53,1.077-0.986c0.253-0.459,0.386-1.344,0.386-2.648v-19.29
			c0-2.37-0.073-3.823-0.204-4.36c-0.142-0.545-0.366-0.917-0.671-1.114c-0.305-0.198-0.7-0.3-1.178-0.3
			c-0.508,0-1.156,0.126-1.95,0.371l-0.508-0.853l8.104-2.607H118.241L118.241,9.833z M129.614,29.368
			c-0.019,3.14,0.932,5.601,2.845,7.387c1.913,1.78,4.169,2.674,6.758,2.674c1.717,0,3.217-0.38,4.494-1.141
			c1.274-0.751,2.343-2.071,3.206-3.938l0.884,0.467c-0.403,2.135-1.57,4.073-3.504,5.805c-1.931,1.732-4.354,2.602-7.257,2.602
			c-3.16,0-5.866-0.987-8.112-2.973s-3.375-4.65-3.375-7.996c0-3.622,1.158-6.453,3.463-8.478c2.306-2.032,5.199-3.045,8.682-3.045
			c2.941,0,5.365,0.783,7.257,2.348c1.895,1.566,2.847,3.662,2.847,6.288H129.614L129.614,29.368z M129.614,28.04h12.183
			c-0.098-1.36-0.293-2.317-0.599-2.871c-0.48-0.863-1.196-1.543-2.148-2.033c-0.94-0.499-1.932-0.743-2.973-0.743
			c-1.588,0-3.009,0.498-4.267,1.495C130.556,24.884,129.829,26.268,129.614,28.04L129.614,28.04z M62.005,7.173
			c-0.503-0.245-1.118-0.292-1.691-0.165c-0.1,0.021-0.17,0.048-0.249,0.076c-0.403,0.136-0.12,0.108-0.643-0.02
			c-0.141-0.035-0.278-0.059-0.429-0.089c-0.814-0.165-1.866-0.073-2.587,0.35c-0.118,0.069-0.205,0.125-0.317,0.201
			c-0.109,0.074-0.185,0.153-0.28,0.241l-0.045,0.041c-0.003,0.004-0.007,0.008-0.011,0.011c-0.002,0.003-0.007,0.008-0.01,0.012
			c-0.536,0.565-0.885,1.3-0.885,2.113c0,0.702,0.046,1.076,0.276,1.725c0.252,0.71,0.802,1.625,1.312,2.206l0.388,0.437
			c0.037,0.042,0.069,0.067,0.108,0.108c0.129,0.138,0.159,0.427,0.039,0.597c-0.053,0.076-0.121,0.07-0.121,0.14v3.031
			c0,0.276,0.131,0.528,0.319,0.68c0.046,0.038,0.167,0.106,0.241,0.106h12.275c0.068,0,0.183-0.061,0.228-0.096
			c0.069-0.052,0.121-0.107,0.168-0.179c0.09-0.131,0.164-0.3,0.164-0.511v-3.031c0-0.106-0.195-0.056-0.195-0.415
			c0-0.321,0.293-0.473,0.496-0.742l0.189-0.223c0.752-0.874,1.512-2.321,1.512-3.507c0-0.791-0.077-1.251-0.473-1.921
			c-0.064-0.11-0.141-0.206-0.217-0.304l-0.53-0.511c-0.335-0.236-0.636-0.385-1.051-0.506c-0.708-0.204-1.576-0.136-2.278,0.031
			c-0.537,0.127-0.252,0.161-0.645,0.028c-0.637-0.216-1.36-0.205-1.957,0.084c-0.209-0.399-0.715-1.652-0.956-2.174l-0.574-1.315
			L62.005,7.173L62.005,7.173z M56.063,9.965c0-0.477,0.179-0.816,0.403-1.074c0.152-0.174,0.654-0.525,0.936-0.533
			c0.487-0.012-0.144,0.843-0.177,0.909c-0.226,0.442-0.249,0.739-0.236,1.199c0.029,0.962,0.75,2.373,1.308,3.125
			c0.095,0.128,0.566,0.771,0.566,0.889c0,0.068,0.016,0.174-0.086,0.174c-0.169,0-0.2-0.081-0.317-0.202
			c-0.145-0.147-0.875-1.106-1-1.278C56.89,12.391,56.063,11.065,56.063,9.965L56.063,9.965z M70.657,8.902
			c0.222,0.268,0.394,0.582,0.394,1.063c0,0.98-0.627,2.055-1.038,2.679c-0.244,0.371-1.063,1.512-1.368,1.82
			c-0.066,0.067-0.149,0.191-0.264,0.191c-0.14,0-0.129-0.043-0.129-0.174c0-0.128,0.204-0.37,0.273-0.464
			c0.362-0.491,0.991-1.493,1.23-2.091c0.038-0.093,0.067-0.168,0.106-0.265c0.146-0.366,0.24-0.733,0.264-1.215v-0.327
			c-0.005-0.65-0.41-1.065-0.524-1.323C69.236,7.965,70.338,8.517,70.657,8.902L70.657,8.902z M58.97,10.532
			c0-0.604,0.216-1.129,0.629-1.543c0.808-0.812,2.286-0.535,3.037,0.229c0.096,0.097,0.176,0.177,0.269,0.272
			c0.185,0.189,0.585,0.783,0.63,0.977h0.043c0.035-0.152,0.302-0.561,0.396-0.689c0.208-0.28,0.518-0.608,0.814-0.812
			c0.832-0.576,2.022-0.697,2.747,0.044c0.197,0.201,0.325,0.367,0.435,0.648c0.563,1.428-0.341,2.902-1.153,4.001l-0.553,0.64
			c-0.07,0.08-0.323,0.398-0.405,0.398h-4.607c-0.065,0-0.176-0.145-0.222-0.191c-0.039-0.04-0.072-0.068-0.107-0.11l-0.375-0.426
			c-0.484-0.579-1.062-1.398-1.308-2.101C59.101,11.47,58.97,11.065,58.97,10.532z"/>
		<linearGradient id="SVGID_2_" gradientUnits="userSpaceOnUse" x1="79.5303" y1="39.1328" x2="71.9887" y2="81.9032">
			<stop  offset="0.1317" style="stop-color:#BF8B2C"/>
			<stop  offset="0.2334" style="stop-color:#FBCF09"/>
			<stop  offset="0.3909" style="stop-color:#AC8347"/>
			<stop  offset="0.5328" style="stop-color:#F3C716"/>
			<stop  offset="0.9892" style="stop-color:#AC8753"/>
		</linearGradient>
		<path fill-rule="evenodd" clip-rule="evenodd" fill="url(#SVGID_2_)" d="M2.65,51.402c0.311-0.245,0.617-0.576,1.233-0.85
			c1.569,1.553,144.048,0.642,144.048,0.642s0.437,12.371,1.069,17.693c-0.299,0.207-1.069,0.79-1.069,0.79H2.65
			C2.65,69.678,2.673,53.631,2.65,51.402z"/>
	</g>
	<g>
		<path fill-rule="evenodd" clip-rule="evenodd" fill="#C1A168" d="M1.715,0.439h11.857l27.033,31.225V7.652
			c0-2.561-0.311-4.161-0.921-4.798c-0.809-0.856-2.096-1.286-3.849-1.286h-1.553V0.439H49.79v1.129h-1.576
			c-1.896,0-3.228,0.533-4.026,1.6c-0.476,0.658-0.721,2.153-0.721,4.484v35.042h-1.176L13.25,9.199v25.611
			c0,2.562,0.3,4.161,0.888,4.8c0.832,0.856,2.118,1.285,3.859,1.285h1.576v1.128H4.065v-1.128h1.553c1.908,0,3.251-0.533,4.049-1.6
			c0.478-0.659,0.721-2.154,0.721-4.485V5.896C9.113,4.485,8.137,3.554,7.482,3.105C6.817,2.655,5.852,2.237,4.576,1.84
			C3.943,1.662,2.99,1.568,1.715,1.568V0.439L1.715,0.439z M64.484,20.345c4.021,0,7.242,1.208,9.671,3.63
			c2.064,2.062,3.101,4.439,3.101,7.12c0,1.883-0.571,3.788-1.708,5.718c-1.136,1.929-2.708,3.387-4.703,4.368
			c-2.005,0.979-4.229,1.466-6.678,1.466c-4,0-7.183-1.262-9.534-3.787c-1.984-2.134-2.983-4.517-2.983-7.168
			c0-1.929,0.603-3.85,1.808-5.756c1.206-1.905,2.797-3.317,4.771-4.227C60.197,20.8,62.282,20.345,64.484,20.345L64.484,20.345z
			 M63.585,21.85c-1.018,0-2.045,0.244-3.083,0.721c-1.027,0.487-1.868,1.326-2.5,2.533c-0.642,1.208-0.958,2.761-0.958,4.659
			c0,3.059,0.771,5.694,2.302,7.912c1.531,2.221,3.556,3.326,6.065,3.326c1.867,0,3.408-0.61,4.624-1.836
			c1.213-1.222,1.827-3.324,1.827-6.305c0-3.732-1.018-6.665-3.043-8.806C67.457,22.588,65.709,21.85,63.585,21.85L63.585,21.85z
			 M87.813,24.807c2.587-2.85,5.386-4.274,8.382-4.274c2.749,0,5.147,0.923,7.195,2.764c2.047,1.84,3.065,4.361,3.065,7.556
			c0,3.728-1.578,6.735-4.735,9.013c-2.717,1.957-5.743,2.935-9.082,2.935c-1.56,0-3.138-0.218-4.746-0.665
			c-1.617-0.445-3.257-1.119-4.937-2.011V18.418c0-2.381-0.069-3.844-0.219-4.393c-0.149-0.556-0.381-0.924-0.69-1.127
			c-0.319-0.197-0.709-0.298-1.178-0.298c-0.551,0-1.229,0.125-2.059,0.368l-0.41-0.846l8.095-2.584h1.318V24.807L87.813,24.807z
			 M87.813,26.264V38.8c0.999,0.759,2.028,1.339,3.086,1.731c1.06,0.383,2.15,0.578,3.268,0.578c1.77,0,3.429-0.761,4.958-2.287
			c1.527-1.525,2.296-3.741,2.296-6.655c0-2.686-0.769-4.745-2.296-6.185c-1.529-1.441-3.269-2.162-5.227-2.162
			c-1.029,0-2.069,0.204-3.099,0.619C90.021,24.745,89.022,25.355,87.813,26.264L87.813,26.264z M119.313,9.539v27.917
			c0,1.308,0.122,2.177,0.365,2.601c0.254,0.422,0.629,0.752,1.146,0.971c0.508,0.22,1.473,0.328,2.872,0.328v0.848h-13.327v-0.848
			c1.248,0,2.099-0.101,2.556-0.296c0.455-0.198,0.811-0.525,1.074-0.98c0.253-0.453,0.386-1.331,0.386-2.623V18.327
			c0-2.349-0.07-3.791-0.203-4.323c-0.141-0.541-0.364-0.909-0.67-1.104c-0.304-0.196-0.698-0.298-1.176-0.298
			c-0.508,0-1.156,0.125-1.947,0.368l-0.507-0.846l8.094-2.585H119.313L119.313,9.539z M130.669,28.908
			c-0.019,3.114,0.931,5.553,2.842,7.326c1.91,1.765,4.164,2.65,6.749,2.65c1.715,0,3.214-0.376,4.487-1.13
			c1.273-0.744,2.341-2.054,3.203-3.906l0.882,0.464c-0.401,2.117-1.568,4.039-3.498,5.755c-1.93,1.719-4.349,2.58-7.248,2.58
			c-3.154,0-5.858-0.979-8.102-2.948c-2.243-1.968-3.37-4.611-3.37-7.928c0-3.592,1.155-6.399,3.458-8.407
			c2.303-2.017,5.191-3.019,8.67-3.019c2.938,0,5.358,0.776,7.25,2.329c1.89,1.552,2.84,3.631,2.84,6.234H130.669L130.669,28.908z
			 M130.669,27.591h12.169c-0.1-1.349-0.296-2.298-0.6-2.847c-0.479-0.854-1.194-1.53-2.146-2.016
			c-0.938-0.494-1.93-0.737-2.967-0.737c-1.587,0-3.007,0.494-4.263,1.482C131.609,24.462,130.886,25.834,130.669,27.591
			L130.669,27.591z M63.151,6.9c-0.502-0.243-1.116-0.289-1.69-0.164c-0.099,0.021-0.169,0.047-0.249,0.075
			c-0.401,0.134-0.119,0.107-0.642-0.02c-0.14-0.034-0.278-0.058-0.428-0.088c-0.813-0.164-1.863-0.072-2.584,0.347
			c-0.118,0.069-0.205,0.124-0.317,0.2c-0.108,0.073-0.185,0.152-0.279,0.239L56.917,7.53c-0.003,0.003-0.008,0.008-0.011,0.011
			c-0.003,0.003-0.007,0.007-0.011,0.011c-0.535,0.562-0.884,1.29-0.884,2.095c0,0.697,0.047,1.067,0.277,1.712
			c0.251,0.704,0.8,1.61,1.309,2.186l0.388,0.433c0.037,0.042,0.069,0.066,0.108,0.108c0.13,0.137,0.159,0.423,0.039,0.592
			c-0.053,0.076-0.121,0.069-0.121,0.138v3.007c0,0.273,0.132,0.523,0.318,0.674c0.046,0.037,0.167,0.104,0.241,0.104H70.83
			c0.068,0,0.183-0.06,0.228-0.095c0.069-0.051,0.119-0.106,0.168-0.176c0.088-0.131,0.163-0.298,0.163-0.507v-3.007
			c0-0.104-0.193-0.054-0.193-0.41c0-0.318,0.292-0.469,0.494-0.735l0.19-0.221c0.751-0.866,1.51-2.302,1.51-3.477
			c0-0.783-0.077-1.241-0.471-1.905c-0.065-0.11-0.142-0.204-0.217-0.301l-0.529-0.506c-0.335-0.234-0.635-0.382-1.05-0.501
			c-0.708-0.204-1.573-0.135-2.275,0.029c-0.536,0.126-0.252,0.161-0.644,0.029c-0.637-0.215-1.358-0.204-1.954,0.083
			c-0.21-0.396-0.714-1.638-0.953-2.155L64.722,3.44L63.151,6.9L63.151,6.9z M57.216,9.669c0-0.473,0.179-0.809,0.403-1.065
			c0.151-0.173,0.653-0.521,0.933-0.529c0.489-0.013-0.142,0.836-0.175,0.901c-0.226,0.438-0.25,0.733-0.236,1.189
			c0.027,0.956,0.748,2.353,1.305,3.099c0.094,0.126,0.565,0.764,0.565,0.882c0,0.067,0.016,0.173-0.085,0.173
			c-0.169,0-0.199-0.081-0.317-0.2c-0.144-0.146-0.874-1.098-0.999-1.268C58.042,12.075,57.216,10.76,57.216,9.669L57.216,9.669z
			 M71.792,8.615c0.22,0.266,0.393,0.577,0.393,1.054c0,0.971-0.626,2.037-1.037,2.656c-0.244,0.368-1.062,1.499-1.366,1.805
			c-0.066,0.067-0.149,0.19-0.264,0.19c-0.141,0-0.13-0.044-0.13-0.173c0-0.127,0.206-0.367,0.275-0.46
			c0.36-0.487,0.99-1.481,1.228-2.073c0.037-0.094,0.066-0.167,0.105-0.264c0.145-0.363,0.24-0.727,0.264-1.205V9.82
			c-0.005-0.645-0.411-1.057-0.524-1.313C70.373,7.686,71.473,8.234,71.792,8.615L71.792,8.615z M60.119,10.231
			c0-0.599,0.216-1.119,0.629-1.531c0.807-0.804,2.284-0.53,3.033,0.228c0.094,0.096,0.175,0.174,0.269,0.27
			c0.185,0.188,0.585,0.776,0.629,0.968h0.043c0.035-0.15,0.301-0.556,0.396-0.683c0.208-0.277,0.518-0.602,0.813-0.805
			c0.832-0.57,2.021-0.691,2.744,0.044c0.196,0.2,0.323,0.364,0.436,0.644c0.562,1.417-0.341,2.877-1.152,3.967l-0.552,0.634
			c-0.07,0.08-0.322,0.395-0.404,0.395h-4.603c-0.064,0-0.174-0.144-0.22-0.189c-0.041-0.04-0.072-0.067-0.108-0.108l-0.375-0.423
			c-0.483-0.574-1.06-1.387-1.305-2.083C60.25,11.162,60.119,10.76,60.119,10.231z"/>
		<rect x="3.874" y="50.549" fill-rule="evenodd" clip-rule="evenodd" fill="#C1A168" width="145.088" height="18.328"/>
		<path fill-rule="evenodd" clip-rule="evenodd" fill="#FFFFFF" d="M23.404,64.327v-8.213h1.953v8.213H23.404L23.404,64.327z
			 M36.604,64.327l1.698-8.481h0.141l3.085,5.35l2.909-5.35h0.146l1.709,8.481h-1.856l-0.692-3.751l-2.194,4.055h-0.13l-2.356-4.109
			l-0.719,3.806H36.604L36.604,64.327z M58.995,60.221c0,0.714,0.208,1.313,0.623,1.795c0.416,0.481,0.928,0.724,1.537,0.724
			c0.612,0,1.126-0.239,1.54-0.72c0.414-0.48,0.62-1.082,0.62-1.799c0-0.72-0.206-1.324-0.62-1.807
			c-0.414-0.481-0.928-0.723-1.54-0.723c-0.609,0-1.121,0.241-1.537,0.723C59.203,58.896,58.995,59.501,58.995,60.221L58.995,60.221
			z M56.985,60.221c0-0.607,0.104-1.177,0.314-1.708c0.207-0.53,0.516-1.005,0.921-1.423c0.383-0.401,0.83-0.71,1.337-0.921
			c0.507-0.216,1.04-0.323,1.596-0.323c0.556,0,1.089,0.109,1.6,0.325c0.509,0.214,0.961,0.525,1.356,0.93
			c0.398,0.403,0.701,0.869,0.905,1.401c0.206,0.529,0.308,1.104,0.308,1.719c0,0.514-0.07,0.997-0.214,1.452
			c-0.145,0.451-0.356,0.865-0.638,1.24c-0.399,0.53-0.888,0.945-1.469,1.239c-0.581,0.296-1.198,0.442-1.848,0.442
			c-0.553,0-1.083-0.107-1.588-0.323c-0.507-0.213-0.956-0.525-1.346-0.927c-0.406-0.421-0.714-0.895-0.921-1.423
			C57.089,61.396,56.985,60.829,56.985,60.221L56.985,60.221z M60.323,55.196l1.15-1.96h1.251l-1.664,1.96H60.323L60.323,55.196z
			 M79.478,64.643h-0.136l-3.857-8.528h2.064l1.929,4.491l1.946-4.491h1.913L79.478,64.643L79.478,64.643z M94.006,64.327v-8.213
			h5.034v1.693h-3.141v1.486h2.69v1.681h-2.69v1.624h3.188v1.729H94.006L94.006,64.327z M110.611,64.327v-8.213h1.95v8.213H110.611
			L110.611,64.327z M124.11,62.007c0.502,0.312,0.929,0.525,1.28,0.65c0.352,0.124,0.693,0.187,1.029,0.187
			c0.337,0,0.608-0.076,0.813-0.226c0.205-0.147,0.308-0.34,0.308-0.573c0-0.334-0.364-0.713-1.094-1.131
			c-0.118-0.067-0.208-0.121-0.271-0.16l-0.553-0.313c-0.537-0.305-0.937-0.65-1.193-1.036c-0.261-0.385-0.389-0.821-0.389-1.309
			c0-0.662,0.248-1.203,0.745-1.626c0.495-0.424,1.135-0.636,1.919-0.636c0.291,0,0.606,0.034,0.942,0.104
			c0.34,0.065,0.715,0.174,1.128,0.316v1.925c-0.396-0.249-0.768-0.44-1.121-0.575c-0.356-0.135-0.657-0.203-0.904-0.203
			c-0.274,0-0.49,0.062-0.648,0.178c-0.158,0.118-0.236,0.281-0.236,0.483c0,0.145,0.046,0.278,0.142,0.401
			c0.092,0.124,0.234,0.236,0.423,0.34l0.958,0.531c0.803,0.447,1.342,0.859,1.618,1.235c0.277,0.38,0.415,0.826,0.415,1.344
			c0,0.803-0.271,1.45-0.813,1.943c-0.544,0.493-1.265,0.737-2.164,0.737c-0.303,0-0.634-0.032-0.991-0.096
			c-0.356-0.063-0.752-0.166-1.179-0.3L124.11,62.007z"/>
	</g>
</g>
</svg>
